<svg xmlns:xlink="http://www.w3.org/1999/xlink" version="1.1" id="Layer_1" xmlns="http://www.w3.org/2000/svg" x="0px" y="0px" viewBox="0 0 40 40" style="enable-background:new 0 0 40 40;" xml:space="preserve">
<g>
	<polygon style="fill:#FFEEA3;" points="1.654,23.5 2.739,19.5 37.261,19.5 38.346,23.5 	"/>
	<g>
		<path style="fill:#BA9B48;" d="M36.878,20l0.814,3H2.308l0.814-3H36.878 M37.643,19H2.357L1,24h38L37.643,19L37.643,19z"/>
	</g>
</g>
<g>
	<polygon style="fill:#F78F8F;" points="1.606,19.5 2.77,13.5 37.23,13.5 38.394,19.5 	"/>
	<g>
		<path style="fill:#C74343;" d="M36.818,14l0.969,5H2.212l0.969-5H36.818 M37.643,13H2.357L1,20h38L37.643,13L37.643,13z"/>
	</g>
</g>
<g>
	<path style="fill:#F5CE85;" d="M4,35.5c-1.378,0-2.5-1.121-2.5-2.5v-3.793L2.207,28.5h35.586l0.707,0.707V33
		c0,1.379-1.122,2.5-2.5,2.5H4z"/>
	<path style="fill:#967A44;" d="M37.586,29L38,29.414V33c0,1.103-0.897,2-2,2H4c-1.103,0-2-0.897-2-2v-3.586L2.414,29H37.586 M38,28
		H2l-1,1v4c0,1.657,1.343,3,3,3h32c1.657,0,3-1.343,3-3v-4L38,28L38,28z"/>
</g>
<g>
	<path style="fill:#BAE0BD;" d="M32,17.5c-2.795,0-7.66-3.471-7.708-3.506l-0.25-0.18l-0.273,0.143
		c-1.249,0.651-4.84,2.343-6.435,2.343c-1.954,0-5.129-1.158-5.161-1.17l-0.163-0.06l-0.165,0.054
		C11.809,15.136,8.234,16.3,6.667,16.3H0.558c0.206-1.006,0.907-2.343,1.206-2.844L2.351,12.5h35.458l0.401,0.903l1.091,1.967
		C37.99,15.956,34.315,17.5,32,17.5z"/>
	<g>
		<path style="fill:#5E9C76;" d="M37.484,13l0.269,0.606l0.018,0.041l0.022,0.039l0.805,1.45C36.839,15.89,33.853,17,32,17
			c-2.185,0-6.095-2.463-7.417-3.412l-0.5-0.359l-0.546,0.285c-1.694,0.884-4.876,2.286-6.204,2.286
			c-1.864,0-4.958-1.127-4.989-1.139l-0.326-0.12l-0.33,0.108c-0.979,0.32-3.788,1.15-5.023,1.15H1.214
			c0.251-0.736,0.672-1.572,0.971-2.076L2.63,13H37.484 M38.133,12H2.071l-0.738,1.2c0,0-1.333,2.24-1.333,3.6c0,0,5,0,6.666,0
			S12,15.6,12,15.6s3.265,1.2,5.334,1.2c2.068,0,6.666-2.4,6.666-2.4s5.009,3.6,8,3.6s8-2.4,8-2.4l-1.333-2.4L38.133,12L38.133,12z"/>
	</g>
</g>
<g>
	<path style="fill:#BAE0BD;" d="M35.136,31.5c-2.433,0-4.173-1.153-4.19-1.165l-0.235-0.158l-0.257,0.121
		c-0.025,0.012-2.583,1.202-5.12,1.202c-2.536,0-5.094-1.19-5.12-1.202l-0.157-0.074l-0.168,0.039
		c-0.054,0.013-5.428,1.237-9.222,1.237c-3.075,0-8.09-1.634-9.855-2.243c0.844-1.028,1.701-1.587,1.987-1.757h34.337l2.121,1.988
		C38.472,30.146,36.671,31.5,35.136,31.5z"/>
	<g>
		<path style="fill:#5E9C76;" d="M36.938,28l1.558,1.461C37.582,30.16,36.225,31,35.136,31c-2.253,0-3.897-1.071-3.91-1.079
			l-0.471-0.316l-0.513,0.241C30.216,29.857,27.752,31,25.333,31c-2.419,0-4.883-1.143-4.906-1.154l-0.313-0.148l-0.338,0.078
			C19.723,29.788,14.406,31,10.667,31c-2.658,0-6.843-1.265-8.975-1.973C2.214,28.498,2.69,28.161,2.942,28H36.938 M37.333,27H2.667
			c0,0-1.448,0.756-2.667,2.5c0,0,6.77,2.5,10.667,2.5C14.563,32,20,30.75,20,30.75S22.648,32,25.333,32
			c2.685,0,5.334-1.25,5.334-1.25S32.522,32,35.136,32C37.382,32,40,29.5,40,29.5L37.333,27L37.333,27z"/>
	</g>
</g>
<g>
	<path style="fill:#F5CE85;" d="M1.516,12.5c0.5-8,13.059-8,18.484-8c17.374,0,18.432,5.254,18.496,8H1.516z"/>
	<path style="fill:#967A44;" d="M20,5c15.812,0,17.734,4.326,17.968,7h-0.325H2.357H2.032C2.266,9.326,4.188,5,20,5 M20,4
		C2.304,4,1,9.45,1,13h1.357h35.286H39C39,9.45,37.696,4,20,4L20,4z"/>
</g>
<g>
	<path style="fill:#A6714E;" d="M2.5,27.5c-1.103,0-2-0.897-2-2s0.897-2,2-2h35c1.103,0,2,0.897,2,2s-0.897,2-2,2H2.5z"/>
	<g>
		<path style="fill:#7A4F34;" d="M37.5,24c0.827,0,1.5,0.673,1.5,1.5S38.327,27,37.5,27h-35C1.673,27,1,26.327,1,25.5
			S1.673,24,2.5,24H37.5 M37.5,23h-35C1.119,23,0,24.119,0,25.5S1.119,28,2.5,28h35c1.381,0,2.5-1.119,2.5-2.5S38.881,23,37.5,23
			L37.5,23z"/>
	</g>
</g>
<g>
	<circle style="fill:#967A44;" cx="14.5" cy="6.5" r="0.5"/>
</g>
<g>
	<circle style="fill:#967A44;" cx="15.5" cy="9.5" r="0.5"/>
</g>
<g>
	<circle style="fill:#967A44;" cx="11.5" cy="8.5" r="0.5"/>
</g>
</svg>
